<svg width="543" height="109" viewBox="0 0 543 109" fill="none" xmlns="http://www.w3.org/2000/svg">
<g clip-path="url(#clip0_26_41)">
<path d="M38.8199 80.3986C36.8999 80.3986 35.1499 79.9786 33.5799 79.1386C32.0099 78.2986 30.7499 77.1686 29.8199 75.7586C28.8899 74.3386 28.4199 72.7686 28.4199 71.0386V37.9186C28.4199 36.1886 28.8899 34.6186 29.8199 33.1986C30.7499 31.7786 32.0099 30.6586 33.5799 29.8186C35.1499 28.9786 36.8999 28.5586 38.8199 28.5586H85.8599V36.3386H40.0199C39.1699 36.3386 38.4599 36.5886 37.8999 37.0986C37.3399 37.5986 37.0599 38.2386 37.0599 39.0086V69.9686C37.0599 70.7386 37.3399 71.3686 37.8999 71.8786C38.4599 72.3786 39.1699 72.6386 40.0199 72.6386H85.8599V80.4186H38.8199V80.3986ZM114.58 80.3986V28.5586H123.22V50.5886H164.82V28.5586H173.54V80.3986H164.82V58.3686H123.22V80.3986H114.58ZM202.26 80.3986V28.5586H255.06V36.3386H210.98V50.5986H246.42V58.3786H210.98V72.6386H255.06V80.4186H202.26V80.3986ZM335.94 60.6386C337.54 59.7986 338.81 58.6686 339.74 57.2586C340.67 55.8386 341.14 54.2686 341.14 52.5386V37.9886C341.14 36.3086 340.67 34.7586 339.74 33.3486C338.81 31.9286 337.54 30.7886 335.94 29.9286C334.34 29.0686 332.58 28.6286 330.66 28.6286H283.54V80.3986H292.18V61.9686L313.57 61.9286L330.74 80.3986H340.82V78.9586L324.84 61.9086L330.66 61.8986C332.58 61.8986 334.34 61.4786 335.94 60.6386ZM294.18 54.0486C293.65 54.0486 293.18 53.8786 292.78 53.5486C292.38 53.2086 292.18 52.8086 292.18 52.3286V38.2086C292.18 37.7286 292.38 37.3086 292.78 36.9486C293.18 36.5886 293.65 36.4086 294.18 36.4086H330.5C331.03 36.4086 331.49 36.5886 331.86 36.9486C332.23 37.3086 332.42 37.7286 332.42 38.2086V52.3186C332.42 52.7986 332.23 53.2086 331.86 53.5386C331.49 53.8786 331.03 54.0386 330.5 54.0386H294.18V54.0486ZM369.86 80.3986V71.1086L415.86 36.3286H369.86V28.5486H427.46V37.8386L381.46 72.6186H427.46V80.3986H369.86ZM456.18 37.9186C456.18 36.1886 456.65 34.6186 457.58 33.1986C458.51 31.7786 459.77 30.6586 461.34 29.8186C462.91 28.9786 464.66 28.5586 466.58 28.5586H503.3C505.22 28.5586 506.98 28.9786 508.58 29.8186C510.18 30.6586 511.45 31.7886 512.38 33.1986C513.31 34.6186 513.78 36.1886 513.78 37.9186V80.3986H505.06V62.2586H464.82V80.3986H456.18V37.9186ZM505.06 54.4786V38.1386C505.06 37.6586 504.87 37.2386 504.5 36.8786C504.13 36.5186 503.67 36.3386 503.14 36.3386H466.82C466.29 36.3386 465.82 36.5186 465.42 36.8786C465.02 37.2386 464.82 37.6586 464.82 38.1386V54.4786H505.06Z" fill="white"/>
<path d="M527.7 108.819H14.4999C6.49991 108.819 -9.15527e-05 102.319 -9.15527e-05 94.3187V14.6387C-9.15527e-05 6.63867 6.49991 0.138672 14.4999 0.138672H527.7C535.7 0.138672 542.2 6.63867 542.2 14.6387V94.3187C542.2 102.309 535.69 108.819 527.7 108.819ZM14.4999 5.13867C9.25991 5.13867 4.99991 9.39867 4.99991 14.6387V94.3187C4.99991 99.5587 9.25991 103.819 14.4999 103.819H527.7C532.94 103.819 537.2 99.5587 537.2 94.3187V14.6387C537.2 9.39867 532.94 5.13867 527.7 5.13867H14.4999Z" fill="url(#paint0_linear_26_41)"/>
</g>
<defs>
<linearGradient id="paint0_linear_26_41" x1="48.8436" y1="182.797" x2="493.354" y2="-73.8405" gradientUnits="userSpaceOnUse">
<stop stop-color="#CD9626"/>
<stop offset="0.15" stop-color="#855C13"/>
<stop offset="0.3" stop-color="#E6B745"/>
<stop offset="0.4" stop-color="#FFEC7B"/>
<stop offset="0.55" stop-color="#E6B745"/>
<stop offset="0.7" stop-color="#CD9626"/>
<stop offset="0.85" stop-color="#F7EC73"/>
<stop offset="1" stop-color="#F2B939"/>
</linearGradient>
<clipPath id="clip0_26_41">
<rect width="542.2" height="108.68" fill="white" transform="translate(-9.15527e-05 0.138672)"/>
</clipPath>
</defs>
</svg>
