<svg width="325" height="205" viewBox="0 0 325 205" fill="none" xmlns="http://www.w3.org/2000/svg">
<path d="M281.39 175.357C282.06 162.427 279.53 148.627 273.8 136.807C269.9 128.757 263.08 122.677 259.66 114.367C257.18 108.327 256.4 101.677 257.86 95.277C258.76 91.337 260.43 87.297 262.99 84.137C249.29 87.987 252.65 111.337 252.65 111.337C246.04 93.107 254.17 83.377 254.17 83.377C248.92 85.817 245.84 95.797 245.84 95.797C249.29 59.677 288.35 62.087 288.35 62.087C311.54 62.447 313.03 78.127 313.03 78.127C304.74 71.077 296.1 74.757 296.1 74.757C300.77 84.857 306.83 80.797 313.47 81.727C326.56 83.567 324.88 99.957 324.88 99.957C322.48 91.147 310.58 91.707 310.58 91.707C300.36 91.707 291.1 96.287 285.37 104.207C280.55 110.877 277.5 118.537 278.15 126.857C278.58 132.377 280.11 137.717 281.05 143.147C282.88 153.627 281.94 164.807 281.39 175.357ZM271.01 204.527C272.75 200.747 273.87 196.657 274.7 192.597C276.72 182.717 276.65 172.437 274.57 162.577C271.45 147.787 263.82 134.377 253.84 123.137C238.08 105.377 220.93 90.757 197.14 81.227C163.21 67.627 127.18 58.967 91.2899 52.567C77.56 50.107 64.44 47.687 51.35 42.717C39.03 38.037 27.3 31.617 17.35 22.917C10.24 16.717 4.21995 9.24701 0.199951 0.687012C0.199951 0.687012 2.21995 33.137 57.57 59.017C125.63 90.847 200.83 72.057 261.09 163.177C259.3 160.467 257.61 157.757 255.6 155.187C250.08 148.147 243.65 141.827 236.77 136.137C225.94 127.177 213.88 119.757 201.22 113.687C183.57 105.227 164.74 99.377 145.58 95.507C134.03 93.177 122.41 91.537 110.64 90.727C98.1799 89.877 86.2399 88.537 74.0999 85.607C63.7399 83.107 53.59 78.717 44.16 73.807C32.44 67.707 21.15 60.197 11.48 51.147C10.95 50.647 10.41 50.147 9.90995 49.627C21.47 63.797 35.66 76.457 50.56 86.957C61.78 94.867 74.27 102.067 87.59 105.727C96.4299 108.157 105.62 108.687 114.71 109.517C123.5 110.327 132.19 111.867 140.75 113.827C156.46 117.427 171.78 122.757 186.18 130.017C208.25 141.127 227.7 156.717 243.87 175.357C245.64 177.407 243.94 175.297 245.64 177.407C245.64 177.407 201.96 130.237 141.55 127.587C88.96 125.287 73.85 117.527 55.02 102.587C55.02 102.587 71.4599 131.337 124.94 138.517C147.1 141.487 170.5 148.307 191.77 158.957C200.43 163.297 208.74 168.267 216.47 173.877C216.47 173.877 183.22 152.667 141.39 158.197C118.61 161.207 93.92 147.697 88.27 140.967C88.27 140.967 112.82 169.287 147.8 173.097C204.03 179.247 254.71 186.057 271.01 204.527Z" fill="url(#paint0_linear_26_83)"/>
<defs>
<linearGradient id="paint0_linear_26_83" x1="64.2524" y1="143.8" x2="282.24" y2="17.9454" gradientUnits="userSpaceOnUse">
<stop stop-color="#CD9626"/>
<stop offset="0.15" stop-color="#855C13"/>
<stop offset="0.3" stop-color="#E6B745"/>
<stop offset="0.4" stop-color="#FFEC7B"/>
<stop offset="0.55" stop-color="#E6B745"/>
<stop offset="0.7" stop-color="#CD9626"/>
<stop offset="0.85" stop-color="#F7EC73"/>
<stop offset="1" stop-color="#F2B939"/>
</linearGradient>
</defs>
</svg>
