<svg width="350" height="283" viewBox="0 0 350 283" fill="none" xmlns="http://www.w3.org/2000/svg">
<g clip-path="url(#clip0_26_21)">
<path d="M293.81 174.982C294.48 162.052 291.95 148.252 286.22 136.432C282.32 128.382 275.5 122.302 272.08 113.992C269.6 107.952 268.82 101.302 270.28 94.902C271.18 90.962 272.85 86.922 275.41 83.762C261.71 87.612 265.07 110.962 265.07 110.962C258.46 92.732 266.59 83.002 266.59 83.002C261.34 85.442 258.26 95.422 258.26 95.422C261.71 59.302 300.77 61.712 300.77 61.712C323.96 62.072 325.45 77.752 325.45 77.752C317.16 70.702 308.52 74.382 308.52 74.382C313.19 84.482 319.25 80.422 325.89 81.352C338.98 83.192 337.3 99.582 337.3 99.582C334.9 90.772 323 91.332 323 91.332C312.78 91.332 303.52 95.912 297.79 103.832C292.97 110.502 289.92 118.162 290.57 126.482C291 132.002 292.53 137.342 293.47 142.772C295.3 153.252 294.36 164.432 293.81 174.982ZM283.43 204.152C285.17 200.372 286.29 196.282 287.12 192.222C289.14 182.342 289.07 172.062 286.99 162.202C283.87 147.412 276.24 134.002 266.26 122.762C250.5 105.002 233.35 90.382 209.56 80.852C175.63 67.252 139.6 58.592 103.71 52.192C89.98 49.732 76.86 47.312 63.77 42.342C51.45 37.662 39.72 31.242 29.77 22.542C22.66 16.342 16.64 8.87201 12.62 0.312012C12.62 0.312012 14.64 32.762 69.99 58.642C138.05 90.472 213.25 71.682 273.51 162.802C271.72 160.092 270.03 157.382 268.02 154.812C262.5 147.772 256.07 141.452 249.19 135.762C238.36 126.802 226.3 119.382 213.64 113.312C195.99 104.852 177.16 99.002 158 95.132C146.45 92.802 134.83 91.162 123.06 90.352C110.6 89.502 98.66 88.162 86.52 85.232C76.16 82.732 66.01 78.342 56.58 73.432C44.86 67.332 33.57 59.822 23.9 50.772C23.37 50.272 22.83 49.772 22.33 49.252C33.89 63.422 48.08 76.082 62.98 86.582C74.2 94.492 86.69 101.692 100.01 105.352C108.85 107.782 118.04 108.312 127.13 109.142C135.92 109.952 144.61 111.492 153.17 113.452C168.88 117.052 184.2 122.382 198.6 129.642C220.67 140.752 240.12 156.342 256.29 174.982C258.06 177.032 256.36 174.922 258.06 177.032C258.06 177.032 214.38 129.862 153.97 127.212C101.38 124.912 86.27 117.152 67.44 102.212C67.44 102.212 83.88 130.962 137.36 138.142C159.52 141.112 182.92 147.932 204.19 158.582C212.85 162.922 221.16 167.892 228.89 173.502C228.89 173.502 195.64 152.292 153.81 157.822C131.03 160.832 106.34 147.322 100.69 140.592C100.69 140.592 125.24 168.912 160.22 172.722C216.45 178.872 267.13 185.682 283.43 204.152Z" fill="url(#paint0_linear_26_21)"/>
<path d="M7.5 282.542C6.12 282.542 4.86 282.242 3.72 281.632C2.59 281.032 1.68 280.212 1.01 279.192C0.34 278.172 0 277.042 0 275.792V251.912C0 250.662 0.34 249.532 1.01 248.512C1.68 247.492 2.59 246.682 3.72 246.072C4.85 245.462 6.11 245.162 7.5 245.162H41.42V250.772H8.37C7.75 250.772 7.25 250.952 6.84 251.322C6.44 251.682 6.23 252.142 6.23 252.702V275.032C6.23 275.582 6.43 276.042 6.84 276.412C7.24 276.772 7.75 276.962 8.37 276.962H41.43V282.572H7.5V282.542ZM62.13 282.542V245.152H68.36V261.042H98.36V245.152H104.65V282.532H98.36V266.652H68.36V282.542H62.13ZM125.36 282.542V245.152H163.44V250.762H131.65V261.042H157.21V266.652H131.65V276.932H163.44V282.542H125.36ZM221.76 268.282C222.91 267.672 223.83 266.862 224.5 265.842C225.17 264.822 225.51 263.692 225.51 262.442V251.952C225.51 250.742 225.17 249.622 224.5 248.602C223.83 247.582 222.91 246.762 221.76 246.132C220.61 245.512 219.34 245.202 217.95 245.202H183.97V282.532H190.2V269.252L205.63 269.222L218.01 282.542H225.28V281.502L213.76 269.202L217.96 269.192C219.33 269.192 220.6 268.892 221.76 268.282ZM191.64 263.532C191.25 263.532 190.92 263.412 190.63 263.172C190.34 262.932 190.2 262.632 190.2 262.292V252.112C190.2 251.762 190.34 251.462 190.63 251.202C190.92 250.942 191.25 250.812 191.64 250.812H217.83C218.21 250.812 218.54 250.942 218.81 251.202C219.08 251.462 219.21 251.762 219.21 252.112V262.292C219.21 262.642 219.07 262.932 218.81 263.172C218.54 263.412 218.21 263.532 217.83 263.532H191.64ZM246.22 282.542V275.842L279.39 250.762H246.22V245.152H287.76V251.852L254.59 276.932H287.76V282.542H246.22ZM308.46 251.902C308.46 250.652 308.8 249.522 309.47 248.502C310.14 247.482 311.05 246.672 312.18 246.062C313.31 245.452 314.57 245.152 315.96 245.152H342.44C343.82 245.152 345.09 245.452 346.25 246.062C347.4 246.672 348.32 247.482 348.99 248.502C349.66 249.522 350 250.652 350 251.902V282.532H343.71V269.452H314.69V282.532H308.46V251.902ZM343.71 263.852V252.062C343.71 251.712 343.57 251.412 343.31 251.152C343.04 250.892 342.71 250.762 342.33 250.762H316.14C315.75 250.762 315.42 250.892 315.13 251.152C314.84 251.412 314.7 251.712 314.7 252.062V263.852H343.71Z" fill="url(#paint1_linear_26_21)"/>
</g>
<defs>
<linearGradient id="paint0_linear_26_21" x1="76.6725" y1="143.425" x2="294.66" y2="17.5704" gradientUnits="userSpaceOnUse">
<stop stop-color="#CD9626"/>
<stop offset="0.15" stop-color="#855C13"/>
<stop offset="0.3" stop-color="#E6B745"/>
<stop offset="0.4" stop-color="#FFEC7B"/>
<stop offset="0.55" stop-color="#E6B745"/>
<stop offset="0.7" stop-color="#CD9626"/>
<stop offset="0.85" stop-color="#F7EC73"/>
<stop offset="1" stop-color="#F2B939"/>
</linearGradient>
<linearGradient id="paint1_linear_26_21" x1="38.5145" y1="344.173" x2="312.806" y2="185.811" gradientUnits="userSpaceOnUse">
<stop stop-color="#CD9626"/>
<stop offset="0.15" stop-color="#855C13"/>
<stop offset="0.3" stop-color="#E6B745"/>
<stop offset="0.4" stop-color="#FFEC7B"/>
<stop offset="0.55" stop-color="#E6B745"/>
<stop offset="0.7" stop-color="#CD9626"/>
<stop offset="0.85" stop-color="#F7EC73"/>
<stop offset="1" stop-color="#F2B939"/>
</linearGradient>
<clipPath id="clip0_26_21">
<rect width="350" height="282.59" fill="white" transform="translate(0 0.312012)"/>
</clipPath>
</defs>
</svg>
